<svg class="main-svg" xmlns="http://www.w3.org/2000/svg" xmlns:xlink="http://www.w3.org/1999/xlink" width="700" height="500" style="" viewBox="0 0 700 500"><rect x="0" y="0" width="700" height="500" style="fill: rgb(255, 255, 255); fill-opacity: 1;"/><defs id="defs-5aa074"><g class="clips"/><g class="gradients"/><g class="patterns"/></defs><g class="bglayer"/><g class="layer-below"><g class="imagelayer"/><g class="shapelayer"/></g><g class="cartesianlayer"/><g class="polarlayer"/><g class="smithlayer"/><g class="ternarylayer"/><g class="geolayer"/><g class="funnelarealayer"/><g class="pielayer"/><g class="iciclelayer"/><g class="treemaplayer"/><g class="sunburstlayer"/><g class="glimages"/><g class="sankey" transform="translate(80,100)matrix(1 0 0 1 0 0)" style="box-sizing: content-box; position: absolute; left: 0px; shape-rendering: geometricprecision; pointer-events: none;"><g class="sankey-links" style="fill: none;"><path class="sankey-link" d="M15,12.261052519618133C95,12.261052519618133 95,-2.6290081223123707e-13 175,-2.6290081223123707e-13L175,78.74105865522148C95,78.74105865522148 95,91.00211117483988 15,91.00211117483988Z" style="stroke: rgb(68, 68, 68); stroke-opacity: 1; fill: rgb(0, 0, 0); fill-opacity: 0.2; stroke-width: 0; opacity: 1;"/><path class="sankey-link" d="M15,91.00211117483988C95,91.00211117483988 95,93.74105865522147 175,93.74105865522147L175,121.42346208869786C95,121.42346208869786 95,118.68451460831628 15,118.68451460831628Z" style="stroke: rgb(68, 68, 68); stroke-opacity: 1; fill: rgb(0, 0, 0); fill-opacity: 0.2; stroke-width: 0; opacity: 1;"/><path class="sankey-link" d="M15,118.68451460831628C95,118.68451460831628 95,136.42346208869793 175,136.42346208869793L175,153.80185979971367C95,153.80185979971367 95,136.062912319332 15,136.062912319332Z" style="stroke: rgb(68, 68, 68); stroke-opacity: 1; fill: rgb(0, 0, 0); fill-opacity: 0.2; stroke-width: 0; opacity: 1;"/><path class="sankey-link" d="M15,136.062912319332C95,136.062912319332 95,168.80185979971367 175,168.80185979971367L175,179.10586552217433C95,179.10586552217433 95,146.36691804179267 15,146.36691804179267Z" style="stroke: rgb(68, 68, 68); stroke-opacity: 1; fill: rgb(0, 0, 0); fill-opacity: 0.2; stroke-width: 0; opacity: 1;"/><path class="sankey-link" d="M15,146.36691804179267C95,146.36691804179267 95,194.10586552217433 175,194.10586552217433L175,198.87339055793973C95,198.87339055793973 95,151.13444307755807 15,151.13444307755807Z" style="stroke: rgb(68, 68, 68); stroke-opacity: 1; fill: rgb(0, 0, 0); fill-opacity: 0.2; stroke-width: 0; opacity: 1;"/><path class="sankey-link" d="M15,206.27392805609895C95,206.27392805609895 95,269.0128755364806 175,269.0128755364806L175,296.233905579399C95,296.233905579399 95,233.49495809901742 15,233.49495809901742Z" style="stroke: rgb(68, 68, 68); stroke-opacity: 1; fill: rgb(0, 0, 0); fill-opacity: 0.2; stroke-width: 0; opacity: 1;"/><path class="sankey-link" d="M15,166.1344430775582C95,166.1344430775582 95,213.87339055793973 175,213.87339055793973L175,254.01287553648052C95,254.01287553648052 95,206.27392805609898 15,206.27392805609898Z" style="stroke: rgb(68, 68, 68); stroke-opacity: 1; fill: rgb(0, 0, 0); fill-opacity: 0.2; stroke-width: 0; opacity: 1;"/><path class="sankey-link" d="M15,248.4949580990175C95,248.4949580990175 95,311.2339055793991 175,311.2339055793991L175,320C95,320 95,257.2610525196184 15,257.2610525196184Z" style="stroke: rgb(68, 68, 68); stroke-opacity: 1; fill: rgb(0, 0, 0); fill-opacity: 0.2; stroke-width: 0; opacity: 1;"/><path class="sankey-link" d="M190,-2.6290081223123707e-13C357.5,-2.6290081223123707e-13 357.5,12.255149652522242 525,12.255149652522242L525,90.99620830774398C357.5,90.99620830774398 357.5,78.74105865522148 190,78.74105865522148Z" style="stroke: rgb(68, 68, 68); stroke-opacity: 1; fill: rgb(0, 0, 0); fill-opacity: 0.2; stroke-width: 0; opacity: 1;"/><path class="sankey-link" d="M190,93.74105865522147C357.5,93.74105865522147 357.5,90.99620830774398 525,90.99620830774398L525,118.67861174122038C357.5,118.67861174122038 357.5,121.42346208869786 190,121.42346208869786Z" style="stroke: rgb(68, 68, 68); stroke-opacity: 1; fill: rgb(0, 0, 0); fill-opacity: 0.2; stroke-width: 0; opacity: 1;"/><path class="sankey-link" d="M190,136.42346208869793C357.5,136.42346208869793 357.5,118.67861174122038 525,118.67861174122038L525,136.05700945223612C357.5,136.05700945223612 357.5,153.80185979971367 190,153.80185979971367Z" style="stroke: rgb(68, 68, 68); stroke-opacity: 1; fill: rgb(0, 0, 0); fill-opacity: 0.2; stroke-width: 0; opacity: 1;"/><path class="sankey-link" d="M190,269.0128755364806C270,269.0128755364806 270,188.4128639037819 350,188.4128639037819L350,215.63389394670037C270,215.63389394670037 270,296.233905579399 190,296.233905579399Z" style="stroke: rgb(68, 68, 68); stroke-opacity: 1; fill: rgb(0, 0, 0); fill-opacity: 0.2; stroke-width: 0; opacity: 1;"/><path class="sankey-link" d="M190,311.2339055793991C270,311.2339055793991 270,215.63389394670037 350,215.63389394670037L350,224.3999883673012C270,224.3999883673012 270,320 190,320Z" style="stroke: rgb(68, 68, 68); stroke-opacity: 1; fill: rgb(0, 0, 0); fill-opacity: 0.2; stroke-width: 0; opacity: 1;"/><path class="sankey-link" d="M190,213.87339055793973C270,213.87339055793973 270,148.27337892524113 350,148.27337892524113L350,188.41286390378193C270,188.41286390378193 270,254.01287553648052 190,254.01287553648052Z" style="stroke: rgb(68, 68, 68); stroke-opacity: 1; fill: rgb(0, 0, 0); fill-opacity: 0.2; stroke-width: 0; opacity: 1;"/><path class="sankey-link" d="M190,168.80185979971367C357.5,168.80185979971367 357.5,136.2108005824221 525,136.2108005824221L525,146.51480630488277C357.5,146.51480630488277 357.5,179.10586552217433 190,179.10586552217433Z" style="stroke: rgb(68, 68, 68); stroke-opacity: 1; fill: rgb(0, 0, 0); fill-opacity: 0.2; stroke-width: 0; opacity: 1;"/><path class="sankey-link" d="M190,194.10586552217433C357.5,194.10586552217433 357.5,146.51480630488277 525,146.51480630488277L525,151.28233134064817C357.5,151.28233134064817 357.5,198.87339055793973 190,198.87339055793973Z" style="stroke: rgb(68, 68, 68); stroke-opacity: 1; fill: rgb(0, 0, 0); fill-opacity: 0.2; stroke-width: 0; opacity: 1;"/><path class="sankey-link" d="M365,148.27337892524113C445,148.27337892524113 445,136.05700945223612 525,136.05700945223612L525,136.2108005824221C445,136.2108005824221 445,148.42717005542713 365,148.42717005542713Z" style="stroke: rgb(0, 0, 0); stroke-opacity: 0.2; fill: rgb(0, 0, 0); fill-opacity: 0.2; stroke-width: 1; opacity: 1;"/></g><g class="sankey-node-set" style="cursor: move;"><g class="sankey-node" transform="translate(0.000,12.261)" style="opacity: 1;"><rect class="node-rect" width="15" height="138.87339055794007" style="stroke-width: 0.5; stroke: rgb(68, 68, 68); stroke-opacity: 1; fill: rgb(99, 110, 250); fill-opacity: 0.8;"/><text class="node-label" data-notex="1" x="0" y="0" text-anchor="start" transform="translate(18.25,71.53669527897003)" style="cursor: default; font-family: 'Open Sans', verdana, arial, sans-serif; font-size: 6px; fill: rgb(42, 63, 95); fill-opacity: 1; white-space: pre; text-shadow: white 1px 1px 1px, white -1px -1px 1px, white 1px -1px 1px, white -1px 1px 1px;">MP_A</text></g><g class="sankey-node" transform="translate(0.000,166.134)" style="opacity: 1;"><rect class="node-rect" width="15" height="67.36051502145932" style="stroke-width: 0.5; stroke: rgb(68, 68, 68); stroke-opacity: 1; fill: rgb(239, 85, 59); fill-opacity: 0.8;"/><text class="node-label" data-notex="1" x="0" y="0" text-anchor="start" transform="translate(18.25,35.78025751072966)" style="cursor: default; font-family: 'Open Sans', verdana, arial, sans-serif; font-size: 6px; fill: rgb(42, 63, 95); fill-opacity: 1; white-space: pre; text-shadow: white 1px 1px 1px, white -1px -1px 1px, white 1px -1px 1px, white -1px 1px 1px;">MP_B</text></g><g class="sankey-node" transform="translate(0.000,248.495)" style="opacity: 1;"><rect class="node-rect" width="15" height="8.766094420600865" style="stroke-width: 0.5; stroke: rgb(68, 68, 68); stroke-opacity: 1; fill: rgb(0, 204, 150); fill-opacity: 0.8;"/><text class="node-label" data-notex="1" x="0" y="0" text-anchor="start" transform="translate(18.25,6.483047210300432)" style="cursor: default; font-family: 'Open Sans', verdana, arial, sans-serif; font-size: 6px; fill: rgb(42, 63, 95); fill-opacity: 1; white-space: pre; text-shadow: white 1px 1px 1px, white -1px -1px 1px, white 1px -1px 1px, white -1px 1px 1px;">MP_C</text></g><g class="sankey-node" transform="translate(175.000,-0.000)" style="opacity: 1;"><rect class="node-rect" width="15" height="78.74105865522174" style="stroke-width: 0.5; stroke: rgb(68, 68, 68); stroke-opacity: 1; fill: rgb(171, 99, 250); fill-opacity: 0.8;"/><text class="node-label" data-notex="1" x="0" y="0" text-anchor="start" transform="translate(18.25,41.47052932761087)" style="cursor: default; font-family: 'Open Sans', verdana, arial, sans-serif; font-size: 6px; fill: rgb(42, 63, 95); fill-opacity: 1; white-space: pre; text-shadow: white 1px 1px 1px, white -1px -1px 1px, white 1px -1px 1px, white -1px 1px 1px;">CP_A</text></g><g class="sankey-node" transform="translate(175.000,93.741)" style="opacity: 1;"><rect class="node-rect" width="15" height="27.682403433476466" style="stroke-width: 0.5; stroke: rgb(68, 68, 68); stroke-opacity: 1; fill: rgb(255, 161, 90); fill-opacity: 0.8;"/><text class="node-label" data-notex="1" x="0" y="0" text-anchor="start" transform="translate(18.25,15.941201716738233)" style="cursor: default; font-family: 'Open Sans', verdana, arial, sans-serif; font-size: 6px; fill: rgb(42, 63, 95); fill-opacity: 1; white-space: pre; text-shadow: white 1px 1px 1px, white -1px -1px 1px, white 1px -1px 1px, white -1px 1px 1px;">CP_B</text></g><g class="sankey-node" transform="translate(175.000,136.423)" style="opacity: 1;"><rect class="node-rect" width="15" height="17.378397711015737" style="stroke-width: 0.5; stroke: rgb(68, 68, 68); stroke-opacity: 1; fill: rgb(25, 211, 243); fill-opacity: 0.8;"/><text class="node-label" data-notex="1" x="0" y="0" text-anchor="start" transform="translate(18.25,10.789198855507868)" style="cursor: default; font-family: 'Open Sans', verdana, arial, sans-serif; font-size: 6px; fill: rgb(42, 63, 95); fill-opacity: 1; white-space: pre; text-shadow: white 1px 1px 1px, white -1px -1px 1px, white 1px -1px 1px, white -1px 1px 1px;">CP_C</text></g><g class="sankey-node" transform="translate(175.000,269.013)" style="opacity: 1;"><rect class="node-rect" width="15" height="27.221030042918528" style="stroke-width: 0.5; stroke: rgb(68, 68, 68); stroke-opacity: 1; fill: rgb(255, 102, 146); fill-opacity: 0.8;"/><text class="node-label" data-notex="1" x="0" y="0" text-anchor="start" transform="translate(18.25,15.710515021459264)" style="cursor: default; font-family: 'Open Sans', verdana, arial, sans-serif; font-size: 6px; fill: rgb(42, 63, 95); fill-opacity: 1; white-space: pre; text-shadow: white 1px 1px 1px, white -1px -1px 1px, white 1px -1px 1px, white -1px 1px 1px;">CP_D</text></g><g class="sankey-node" transform="translate(175.000,311.234)" style="opacity: 1;"><rect class="node-rect" width="15" height="8.766094420600893" style="stroke-width: 0.5; stroke: rgb(68, 68, 68); stroke-opacity: 1; fill: rgb(182, 232, 128); fill-opacity: 0.8;"/><text class="node-label" data-notex="1" x="0" y="0" text-anchor="start" transform="translate(18.25,6.483047210300446)" style="cursor: default; font-family: 'Open Sans', verdana, arial, sans-serif; font-size: 6px; fill: rgb(42, 63, 95); fill-opacity: 1; white-space: pre; text-shadow: white 1px 1px 1px, white -1px -1px 1px, white 1px -1px 1px, white -1px 1px 1px;">CP_E</text></g><g class="sankey-node" transform="translate(175.000,213.873)" style="opacity: 1;"><rect class="node-rect" width="15" height="40.13948497854085" style="stroke-width: 0.5; stroke: rgb(68, 68, 68); stroke-opacity: 1; fill: rgb(255, 151, 255); fill-opacity: 0.8;"/><text class="node-label" data-notex="1" x="0" y="0" text-anchor="start" transform="translate(18.25,22.169742489270426)" style="cursor: default; font-family: 'Open Sans', verdana, arial, sans-serif; font-size: 6px; fill: rgb(42, 63, 95); fill-opacity: 1; white-space: pre; text-shadow: white 1px 1px 1px, white -1px -1px 1px, white 1px -1px 1px, white -1px 1px 1px;">CP_F</text></g><g class="sankey-node" transform="translate(175.000,168.802)" style="opacity: 1;"><rect class="node-rect" width="15" height="10.304005722460658" style="stroke-width: 0.5; stroke: rgb(68, 68, 68); stroke-opacity: 1; fill: rgb(254, 203, 82); fill-opacity: 0.8;"/><text class="node-label" data-notex="1" x="0" y="0" text-anchor="start" transform="translate(18.25,7.252002861230329)" style="cursor: default; font-family: 'Open Sans', verdana, arial, sans-serif; font-size: 6px; fill: rgb(42, 63, 95); fill-opacity: 1; white-space: pre; text-shadow: white 1px 1px 1px, white -1px -1px 1px, white 1px -1px 1px, white -1px 1px 1px;">CP_G</text></g><g class="sankey-node" transform="translate(175.000,194.106)" style="opacity: 1;"><rect class="node-rect" width="15" height="4.767525035765402" style="stroke-width: 0.5; stroke: rgb(68, 68, 68); stroke-opacity: 1; fill: rgb(99, 110, 250); fill-opacity: 0.8;"/><text class="node-label" data-notex="1" x="0" y="0" text-anchor="start" transform="translate(18.25,4.483762517882701)" style="cursor: default; font-family: 'Open Sans', verdana, arial, sans-serif; font-size: 6px; fill: rgb(42, 63, 95); fill-opacity: 1; white-space: pre; text-shadow: white 1px 1px 1px, white -1px -1px 1px, white 1px -1px 1px, white -1px 1px 1px;">CP_H</text></g><g class="sankey-node" transform="translate(350.000,148.273)" style="opacity: 1;"><rect class="node-rect" width="15" height="76.12660944206013" style="stroke-width: 0.5; stroke: rgb(68, 68, 68); stroke-opacity: 1; fill: rgb(239, 85, 59); fill-opacity: 0.8;"/><text class="node-label" data-notex="1" x="0" y="0" text-anchor="start" transform="translate(18.25,40.163304721030066)" style="cursor: default; font-family: 'Open Sans', verdana, arial, sans-serif; font-size: 6px; fill: rgb(42, 63, 95); fill-opacity: 1; white-space: pre; text-shadow: white 1px 1px 1px, white -1px -1px 1px, white 1px -1px 1px, white -1px 1px 1px;">RdRp_B</text></g><g class="sankey-node" transform="translate(525.000,12.255)" style="opacity: 1;"><rect class="node-rect" width="15" height="139.02718168812584" style="stroke-width: 0.5; stroke: rgb(68, 68, 68); stroke-opacity: 1; fill: rgb(0, 204, 150); fill-opacity: 0.8;"/><text class="node-label" data-notex="1" x="0" y="0" text-anchor="end" transform="translate(-3.25,71.61359084406291)" style="cursor: default; font-family: 'Open Sans', verdana, arial, sans-serif; font-size: 6px; fill: rgb(42, 63, 95); fill-opacity: 1; white-space: pre; text-shadow: white 1px 1px 1px, white -1px -1px 1px, white 1px -1px 1px, white -1px 1px 1px;">RdRp_A</text></g></g></g><defs id="topdefs-5aa074"><g class="clips"/></defs><g class="layer-above"><g class="imagelayer"/><g class="shapelayer"/></g><g class="infolayer"><g class="g-gtitle"/><g class="first-render"/></g></svg>